<svg width="32" height="32" fill="none" xmlns="http://www.w3.org/2000/svg"><rect width="32" height="32" rx="1.992" fill="#0039A6"/><g clip-path="url(#clip0)"><path d="M16.833 16.177c2.801 0 5.08-1.841 5.08-4.104 0-2.264-2.279-4.105-5.08-4.105H12.65c-.495 0-.897.325-.897.725v8.933h-.896c-.495 0-.897.325-.897.725 0 .4.402.724.897.724h.896v4.105c0 .4.402.724.897.724s.896-.324.896-.724v-4.105h3.287c.495 0 .896-.324.896-.724 0-.4-.4-.725-.896-.725h-3.287v-1.449h3.287zm0-6.76h.029c1.8.012 3.258 1.199 3.258 2.656 0 1.464-1.475 2.656-3.287 2.656h-3.287V9.417h3.287z" fill="#fff"/></g><defs><clipPath id="clip0"><path fill="#fff" transform="translate(7.968 7.968)" d="M0 0h15.936v15.936H0z"/></clipPath></defs></svg>