<svg width="32" height="32" fill="none" xmlns="http://www.w3.org/2000/svg"><rect width="32" height="32" rx="1.992" fill="url(#paint0_linear)"/><g clip-path="url(#clip0)"><path d="M15.936 31.873c8.802 0 15.937-7.135 15.937-15.937C31.873 7.135 24.738 0 15.936 0 7.135 0 0 7.135 0 15.936c0 8.802 7.135 15.937 15.936 15.937z" fill="#fff"/><path d="M15.936 31.873c8.802 0 15.937-7.135 15.937-15.937C31.873 7.135 24.738 0 15.936 0 7.135 0 0 7.135 0 15.936c0 8.802 7.135 15.937 15.936 15.937z" fill="url(#paint1_linear)"/><path d="M21.617 14.342c.252-1.68-1.028-2.584-2.777-3.186l.567-2.277-1.385-.345-.553 2.217c-.364-.092-.738-.177-1.11-.262l.557-2.23-1.386-.346-.567 2.276c-.301-.07-.598-.136-.885-.209l.002-.007-1.911-.477-.37 1.48s1.03.236 1.008.25c.56.14.662.511.645.806l-.646 2.594c.038.01.088.024.144.045l-.146-.036-.906 3.633c-.07.17-.243.426-.636.329.014.02-1.007-.251-1.007-.251l-.688 1.585 1.804.45c.335.084.664.173.987.255l-.573 2.302 1.384.345.567-2.277c.379.102.746.197 1.105.287l-.566 2.267 1.385.344.573-2.297c2.364.447 4.14.267 4.888-1.87.603-1.72-.03-2.714-1.273-3.36.906-.209 1.587-.805 1.77-2.035zm-3.166 4.44c-.428 1.72-3.325.79-4.265.556l.762-3.05c.94.235 3.95.7 3.503 2.493zm.429-4.465c-.39 1.566-2.802.77-3.584.575l.69-2.766c.781.195 3.3.558 2.894 2.191z" fill="#fff"/><path d="M21.617 14.342c.252-1.68-1.028-2.584-2.777-3.186l.567-2.277-1.385-.345-.553 2.217c-.364-.092-.738-.177-1.11-.262l.557-2.23-1.386-.346-.567 2.276c-.301-.07-.598-.136-.885-.209l.002-.007-1.911-.477-.37 1.48s1.03.236 1.008.25c.56.14.662.511.645.806l-.646 2.594c.038.01.088.024.144.045l-.146-.036-.906 3.633c-.07.17-.243.426-.636.329.014.02-1.007-.251-1.007-.251l-.688 1.585 1.804.45c.335.084.664.173.987.255l-.573 2.302 1.384.345.567-2.277c.379.102.746.197 1.105.287l-.566 2.267 1.385.344.573-2.297c2.364.447 4.14.267 4.888-1.87.603-1.72-.03-2.714-1.273-3.36.906-.209 1.587-.805 1.77-2.035zm-3.166 4.44c-.428 1.72-3.325.79-4.265.556l.762-3.05c.94.235 3.95.7 3.503 2.493zm.429-4.465c-.39 1.566-2.802.77-3.584.575l.69-2.766c.781.195 3.3.558 2.894 2.191z" fill="#fff"/></g><defs><linearGradient id="paint0_linear" x1="16" y1="0" x2="16" y2="32" gradientUnits="userSpaceOnUse"><stop stop-color="#F99600"/><stop offset="1" stop-color="#F99600"/></linearGradient><linearGradient id="paint1_linear" x1="29.964" y1="11.339" x2="-1.427" y2="11.835" gradientUnits="userSpaceOnUse"><stop stop-color="#F99600"/><stop offset="1" stop-color="#F99600"/></linearGradient><clipPath id="clip0"><path fill="#fff" d="M0 0h31.873v31.873H0z"/></clipPath></defs></svg>