<svg width="32" height="32" fill="none" xmlns="http://www.w3.org/2000/svg"><rect width="32" height="32" rx="1.992" fill="url(#paint0_linear)"/><path d="M16.187 20.896l6.23-3.614-6.23 8.618-6.227-8.619 6.227 3.613v.002zm0-14.92l6.225 10.147-6.225 3.614-6.227-3.614 6.227-10.148z" fill="#000"/><path d="M16.186 5.976v7.365l6.225 2.782-6.226-10.147z" fill="#AFC6FD"/><path d="M16.187 5.976L9.96 16.124l6.227-2.782V5.976z" fill="#C6D6FE"/><path d="M16.186 20.897v5.005l6.23-8.619-6.23 3.614z" fill="#A3BBFC"/><path d="M16.187 25.902v-5.006L9.96 17.283l6.227 8.619z" fill="#BCCDFD"/><path d="M16.186 19.738l6.225-3.614-6.226-2.78v6.394z" fill="#95B1FC"/><path d="M9.96 16.124l6.227 3.614v-6.394l-6.227 2.78z" fill="#A9C0FD"/><defs><linearGradient id="paint0_linear" x1="16" y1="0" x2="35.13" y2="34.549" gradientUnits="userSpaceOnUse"><stop stop-color="#496BE8"/><stop offset="1" stop-color="#2759F1"/></linearGradient></defs></svg>