<svg width="25" height="25" fill="none" xmlns="http://www.w3.org/2000/svg"><rect width="25" height="25" rx="1.562" fill="url(#paint0_linear)"/><g clip-path="url(#clip0)"><path d="M12.498 24.996c6.903 0 12.498-5.595 12.498-12.498C24.996 5.596 19.401 0 12.498 0 5.596 0 0 5.596 0 12.498c0 6.903 5.596 12.498 12.498 12.498z" fill="#000"/><path d="M12.498 24.996c6.903 0 12.498-5.595 12.498-12.498C24.996 5.596 19.401 0 12.498 0 5.596 0 0 5.596 0 12.498c0 6.903 5.596 12.498 12.498 12.498z" fill="url(#paint1_linear)"/><path d="M16.953 11.248c.198-1.317-.806-2.026-2.178-2.499l.445-1.785-1.086-.27-.434 1.738c-.286-.072-.579-.138-.87-.205l.436-1.75-1.086-.27-.445 1.784c-.237-.054-.47-.107-.694-.163v-.006l-1.498-.374-.289 1.16s.806.185.79.197c.44.11.519.4.506.632l-.507 2.034a.97.97 0 01.113.036l-.115-.029-.71 2.85c-.054.133-.19.333-.499.257.011.016-.79-.197-.79-.197l-.539 1.244 1.415.353c.262.066.52.135.774.2l-.45 1.805 1.086.27.445-1.785c.296.08.585.154.866.224l-.444 1.778 1.087.27.45-1.801c1.852.35 3.245.21 3.832-1.467.473-1.349-.023-2.128-.998-2.635.71-.164 1.244-.63 1.387-1.596zM14.47 14.73c-.335 1.35-2.608.62-3.345.437l.598-2.392c.736.184 3.098.548 2.747 1.955zm.336-3.501c-.306 1.228-2.197.603-2.81.45l.54-2.168c.614.153 2.59.437 2.27 1.718z" fill="#000"/><path d="M16.662 11.205h0c-.065.436-.213.735-.405.94-.192.207-.447.34-.757.412l-.78.18.71.368c.454.237.758.516.908.859.148.339.168.79-.052 1.418h0c-.266.759-.695 1.138-1.25 1.309-.582.179-1.333.139-2.25-.035l-.274-.051-.067.27-.378 1.515-.514-.128.372-1.491.071-.286-.285-.072c-.28-.07-.567-.143-.862-.223l-.29-.078-.072.292-.374 1.5-.514-.129.378-1.52.071-.283-.284-.073-.318-.082c-.15-.04-.305-.08-.457-.118h0l-1.077-.269.3-.692a58.114 58.114 0 00.433.11 3.21 3.21 0 00.142.03h.007a.684.684 0 00.555-.104.768.768 0 00.255-.336l.008-.019.005-.02.71-2.85-.153-.037.003-.008.152.038.507-2.034.006-.026.002-.028a.897.897 0 00-.128-.536c-.117-.184-.306-.318-.568-.39h-.001v-.001a2.795 2.795 0 00-.145-.043 16.896 16.896 0 00-.39-.095l.146-.584.934.234-.001.005.278.07c.213.053.433.103.652.154l.048.01.282.065.07-.28.373-1.5.515.13-.366 1.463-.073.291.294.067.016.004c.288.066.572.13.848.2l.286.072.072-.287.362-1.452.515.128-.374 1.5-.065.261.255.088c.671.231 1.214.509 1.564.862.336.338.503.752.419 1.315zm-2.635 4.458c.348-.151.621-.428.729-.862.11-.444.005-.823-.231-1.126-.226-.289-.56-.496-.899-.65-.541-.245-1.182-.389-1.587-.48-.096-.021-.18-.04-.245-.056l-.286-.072-.071.286-.597 2.392-.072.287.287.07.198.053c.4.105 1.06.28 1.68.312.37.02.762-.009 1.094-.154zm-2.317-4.055l-.071.286 3.167-.665.286.071s0 0 0 0c.1-.403.02-.75-.18-1.03-.191-.267-.479-.454-.765-.59-.458-.216-1.003-.336-1.34-.41a6.69 6.69 0 01-.199-.045l-.286-.071-.071.285-.54 2.17z" fill="#fff" stroke="#fff" stroke-width=".589"/></g><defs><linearGradient id="paint0_linear" x1="12.5" y1="0" x2="12.5" y2="25" gradientUnits="userSpaceOnUse"><stop stop-color="#F99600"/><stop offset="1" stop-color="#F99600"/></linearGradient><linearGradient id="paint1_linear" x1="23.499" y1="8.893" x2="-1.119" y2="9.282" gradientUnits="userSpaceOnUse"><stop stop-color="#F99600"/><stop offset="1" stop-color="#F99600"/></linearGradient><clipPath id="clip0"><path fill="#fff" d="M0 0h24.996v24.996H0z"/></clipPath></defs></svg>