<svg width="25" height="25" fill="none" xmlns="http://www.w3.org/2000/svg"><rect width="25" height="25" rx="1.562" fill="#0039A6"/><g clip-path="url(#clip0)"><path d="M13.175 6.64v0h.026c2.063 0 3.593 1.342 3.593 2.828 0 1.486-1.53 2.829-3.593 2.829h-2.968v1.917H13.2c.11 0 .198.037.252.08.052.042.06.08.06.098 0 .018-.008.055-.06.098a.403.403 0 01-.252.08h-2.968v3.609c0 .019-.008.055-.061.098a.403.403 0 01-.252.08.403.403 0 01-.251-.08c-.053-.043-.061-.08-.061-.098v-3.61H8.514a.403.403 0 01-.251-.08c-.053-.042-.061-.079-.061-.097 0-.019.008-.056.06-.098a.403.403 0 01.252-.08h1.093V6.818v0c0-.02.01-.056.062-.098a.402.402 0 01.252-.08h3.255zm-3.28 0h.006-.005zm3.332.355h0-2.995v4.946H13.2c1.555 0 2.968-1.035 2.968-2.473 0-1.43-1.398-2.462-2.943-2.473z" fill="#fff" stroke="#fff" stroke-width=".781"/></g><defs><clipPath id="clip0"><path fill="#fff" transform="translate(6.249 6.249)" d="M0 0h12.498v12.498H0z"/></clipPath></defs></svg>