<svg width="25" height="25" fill="none" xmlns="http://www.w3.org/2000/svg"><rect width="25" height="25" rx="1.562" fill="url(#paint0_linear)"/><path d="M12.694 16.388l4.886-2.834-4.886 6.76-4.883-6.76 4.883 2.833v.001zm0-11.701l4.882 7.958-4.882 2.835-4.883-2.835 4.883-7.958z" fill="#000"/><path d="M12.693 4.687v5.776l4.883 2.182-4.883-7.958z" fill="#AFC6FD"/><path d="M12.694 4.687l-4.883 7.958 4.883-2.182V4.687z" fill="#C6D6FE"/><path d="M12.693 16.389v3.925l4.886-6.76-4.886 2.835z" fill="#A3BBFC"/><path d="M12.694 20.314v-3.926l-4.883-2.833 4.883 6.759z" fill="#BCCDFD"/><path d="M12.693 15.48l4.883-2.834-4.883-2.18v5.014z" fill="#95B1FC"/><path d="M7.811 12.646l4.883 2.834v-5.015l-4.883 2.18z" fill="#A9C0FD"/><defs><linearGradient id="paint0_linear" x1="12.5" y1="0" x2="27.445" y2="26.991" gradientUnits="userSpaceOnUse"><stop stop-color="#496BE8"/><stop offset="1" stop-color="#2759F1"/></linearGradient></defs></svg>