<svg width="25" height="25" fill="none" xmlns="http://www.w3.org/2000/svg"><rect width="25" height="25" rx="1.562" fill="url(#paint0_linear)"/><g clip-path="url(#clip0)"><path d="M12.498 24.996c6.903 0 12.498-5.595 12.498-12.498C24.996 5.596 19.401 0 12.498 0 5.596 0 0 5.596 0 12.498c0 6.903 5.596 12.498 12.498 12.498z" fill="#000"/><path d="M12.498 24.996c6.903 0 12.498-5.595 12.498-12.498C24.996 5.596 19.401 0 12.498 0 5.596 0 0 5.596 0 12.498c0 6.903 5.596 12.498 12.498 12.498z" fill="url(#paint1_linear)"/><path d="M16.953 11.248c.197-1.317-.807-2.026-2.178-2.499l.445-1.785-1.087-.27-.433 1.738c-.286-.072-.579-.138-.871-.205l.437-1.75-1.086-.27-.445 1.784c-.237-.054-.47-.107-.694-.163v-.006l-1.498-.374-.29 1.16s.807.185.79.197c.44.11.52.4.507.632l-.507 2.034a.97.97 0 01.113.036l-.115-.029-.71 2.85c-.055.133-.19.333-.499.257.011.016-.79-.197-.79-.197l-.539 1.244 1.415.353c.262.066.52.135.773.2l-.45 1.805 1.087.27.445-1.785c.296.08.584.154.866.224l-.444 1.778 1.086.27.45-1.801c1.853.35 3.246.21 3.833-1.467.473-1.349-.023-2.128-.998-2.635.71-.164 1.244-.63 1.387-1.596zM14.47 14.73c-.335 1.35-2.608.62-3.345.437l.598-2.392c.736.184 3.098.548 2.747 1.955zm.336-3.501c-.306 1.228-2.197.603-2.81.45l.54-2.168c.614.153 2.59.437 2.27 1.718z" fill="#000"/><path d="M16.953 11.248c.197-1.317-.807-2.026-2.178-2.499l.445-1.785-1.087-.27-.433 1.738c-.286-.072-.579-.138-.871-.205l.437-1.75-1.086-.27-.445 1.784c-.237-.054-.47-.107-.694-.163v-.006l-1.498-.374-.29 1.16s.807.185.79.197c.44.11.52.4.507.632l-.507 2.034a.97.97 0 01.113.036l-.115-.029-.71 2.85c-.055.133-.19.333-.499.257.011.016-.79-.197-.79-.197l-.539 1.244 1.415.353c.262.066.52.135.773.2l-.45 1.805 1.087.27.445-1.785c.296.08.584.154.866.224l-.444 1.778 1.086.27.45-1.801c1.853.35 3.246.21 3.833-1.467.473-1.349-.023-2.128-.998-2.635.71-.164 1.244-.63 1.387-1.596zM14.47 14.73c-.335 1.35-2.608.62-3.345.437l.598-2.392c.736.184 3.098.548 2.747 1.955zm.336-3.501c-.306 1.228-2.197.603-2.81.45l.54-2.168c.614.153 2.59.437 2.27 1.718z" fill="#fff"/></g><defs><linearGradient id="paint0_linear" x1="12.5" y1="0" x2="12.5" y2="25" gradientUnits="userSpaceOnUse"><stop stop-color="#F99600"/><stop offset="1" stop-color="#F99600"/></linearGradient><linearGradient id="paint1_linear" x1="23.499" y1="8.893" x2="-1.119" y2="9.282" gradientUnits="userSpaceOnUse"><stop stop-color="#F99600"/><stop offset="1" stop-color="#F99600"/></linearGradient><clipPath id="clip0"><path fill="#fff" d="M0 0h24.996v24.996H0z"/></clipPath></defs></svg>