<svg width="25" height="25" fill="none" xmlns="http://www.w3.org/2000/svg"><rect width="25" height="25" rx="1.562" fill="#0039A6"/><g clip-path="url(#clip0)"><path d="M13.2 12.687c2.198 0 3.985-1.444 3.985-3.219S15.398 6.25 13.2 6.25a.84.84 0 00-.026 0H9.921c-.389 0-.704.255-.704.568v7.007h-.703c-.388 0-.703.254-.703.568 0 .313.315.568.703.568h.703v3.219c0 .314.315.568.703.568.389 0 .703-.254.703-.568v-3.22h2.578c.388 0 .703-.254.703-.567 0-.314-.315-.568-.703-.568h-2.578v-1.137h2.578zm0-5.301h.024c1.41.01 2.555.94 2.555 2.082 0 1.149-1.157 2.083-2.578 2.083h-2.578V7.386h2.578z" fill="#fff"/></g><defs><clipPath id="clip0"><path fill="#fff" transform="translate(6.249 6.249)" d="M0 0h12.498v12.498H0z"/></clipPath></defs></svg>